<?xml version="1.0" encoding="UTF-8" standalone="no"?>
<!-- Created with Inkscape (http://www.inkscape.org/) -->

<svg
   xmlns:dc="http://purl.org/dc/elements/1.1/"
   xmlns:cc="http://creativecommons.org/ns#"
   xmlns:rdf="http://www.w3.org/1999/02/22-rdf-syntax-ns#"
   xmlns:svg="http://www.w3.org/2000/svg"
   xmlns="http://www.w3.org/2000/svg"
   xmlns:sodipodi="http://sodipodi.sourceforge.net/DTD/sodipodi-0.dtd"
   xmlns:inkscape="http://www.inkscape.org/namespaces/inkscape"
   width="502.65543"
   height="229.34862"
   id="svg3000"
   version="1.1"
   inkscape:version="0.48.4 r9939"
   sodipodi:docname="upbox_logo_whitebg.svg"
   inkscape:export-filename="/home/px2ec/Documentos/upbox_demo1/documentation/logo/upbox_logo_whitebg.png"
   inkscape:export-xdpi="90"
   inkscape:export-ydpi="90">
  <defs
     id="defs3002" />
  <sodipodi:namedview
     id="base"
     pagecolor="#ffffff"
     bordercolor="#666666"
     borderopacity="1.0"
     inkscape:pageopacity="0.0"
     inkscape:pageshadow="2"
     inkscape:zoom="3.3644526"
     inkscape:cx="253.24232"
     inkscape:cy="112.92336"
     inkscape:document-units="px"
     inkscape:current-layer="g3099"
     showgrid="false"
     inkscape:window-width="1920"
     inkscape:window-height="1056"
     inkscape:window-x="0"
     inkscape:window-y="24"
     inkscape:window-maximized="1"
     fit-margin-top="0"
     fit-margin-left="0"
     fit-margin-right="0"
     fit-margin-bottom="0">
    <inkscape:grid
       type="xygrid"
       id="grid3097"
       empspacing="5"
       visible="true"
       enabled="true"
       snapvisiblegridlinesonly="true"
       originx="-138.43768px"
       originy="-676.18863px" />
  </sodipodi:namedview>
  <metadata
     id="metadata3005">
    <rdf:RDF>
      <cc:Work
         rdf:about="">
        <dc:format>image/svg+xml</dc:format>
        <dc:type
           rdf:resource="http://purl.org/dc/dcmitype/StillImage" />
        <dc:title></dc:title>
      </cc:Work>
    </rdf:RDF>
  </metadata>
  <g
     inkscape:label="Capa 1"
     inkscape:groupmode="layer"
     id="layer1"
     transform="translate(-138.43768,-146.82494)">
    <g
       id="g3099"
       transform="matrix(4.9656332,0,0,4.9656332,-1102.5216,-946.68503)">
      <g
         id="text3008"
         style="font-size:40px;font-style:normal;font-variant:normal;font-weight:normal;font-stretch:normal;line-height:125%;letter-spacing:0px;word-spacing:0px;fill:#000000;fill-opacity:1;stroke:none;font-family:Aller;-inkscape-font-specification:Aller">
        <path
           id="path3059"
           d="m 252.96,233.27076 c 0.29333,-0.0533 0.62666,-0.0933 1,-0.12 0.37333,-0.0266 0.69333,-0.04 0.96,-0.04 0.29333,2e-5 0.62666,0.0134 1,0.04 0.37333,0.0267 0.70666,0.0667 1,0.12 l 0,11.24 c -1e-5,1.28 0.11999,2.34667 0.36,3.2 0.23999,0.82667 0.59999,1.48 1.08,1.96 0.47999,0.48 1.06666,0.81333 1.76,1 0.69332,0.18667 1.49332,0.28 2.4,0.28 1.35999,0 2.51998,-0.14667 3.48,-0.44 l 0,-17.24 c 0.29332,-0.0533 0.61332,-0.0933 0.96,-0.12 0.37332,-0.0266 0.70665,-0.04 1,-0.04 0.29332,2e-5 0.61331,0.0134 0.96,0.04 0.37331,0.0267 0.70665,0.0667 1,0.12 l 0,19.88 c -0.93335,0.26666 -2.05335,0.52 -3.36,0.76 -1.28002,0.24 -2.61335,0.36 -4,0.36 -1.30668,0 -2.54668,-0.12 -3.72,-0.36 -1.14667,-0.21334 -2.16001,-0.66667 -3.04,-1.36 -0.88,-0.69334 -1.57334,-1.66667 -2.08,-2.92 -0.50667,-1.25333 -0.76,-2.90666 -0.76,-4.96 l 0,-11.4"
           inkscape:connector-curvature="0"
           style="fill:#999999" />
        <path
           inkscape:connector-curvature="0"
           id="path3061"
           d="m 272.029,233.27076 c 0.26666,-0.0533 0.53333,-0.0933 0.8,-0.12 0.29333,-0.0266 0.58666,-0.04 0.88,-0.04 0.26666,2e-5 0.54666,0.0134 0.84,0.04 0.29333,0.0267 0.57333,0.0667 0.84,0.12 0.0267,0.0533 0.0533,0.22668 0.08,0.52 0.0533,0.26668 0.0933,0.56002 0.12,0.88 0.0533,0.32002 0.0933,0.62668 0.12,0.92 0.0533,0.29335 0.08,0.48001 0.08,0.56 0.26666,-0.42665 0.58666,-0.83999 0.96,-1.24 0.37333,-0.39998 0.81332,-0.75998 1.32,-1.08 0.53332,-0.31998 1.11999,-0.57332 1.76,-0.76 0.66666,-0.18665 1.39999,-0.27998 2.2,-0.28 1.19999,2e-5 2.30665,0.20002 3.32,0.6 1.03998,0.40002 1.91998,1.02668 2.64,1.88 0.74665,0.82668 1.31998,1.89335 1.72,3.2 0.42665,1.28001 0.63998,2.80001 0.64,4.56 -2e-5,3.52 -0.96002,6.28 -2.88,8.28 -1.89335,1.97333 -4.58668,2.96 -8.08,2.96 -0.58668,0 -1.18668,-0.04 -1.8,-0.12 -0.61334,-0.08 -1.14667,-0.18667 -1.6,-0.32 l 0,9.4 c -0.32001,0.0533 -0.66667,0.0933 -1.04,0.12 -0.34667,0.0267 -0.66667,0.04 -0.96,0.04 -0.29334,-10e-6 -0.62667,-0.0134 -1,-0.04 -0.34667,-0.0267 -0.66667,-0.0667 -0.96,-0.12 l 0,-29.96 m 3.96,17.16 c 0.50666,0.18667 1.02666,0.32 1.56,0.4 0.53332,0.08 1.22666,0.12 2.08,0.12 0.95999,0 1.83999,-0.14667 2.64,-0.44 0.79999,-0.32 1.47999,-0.8 2.04,-1.44 0.58665,-0.64 1.03998,-1.44 1.36,-2.4 0.34665,-0.98666 0.51998,-2.14666 0.52,-3.48 -2e-5,-2.13332 -0.40002,-3.82666 -1.2,-5.08 -0.77335,-1.25332 -2.05335,-1.87999 -3.84,-1.88 -0.66668,1e-5 -1.30668,0.12001 -1.92,0.36 -0.61334,0.24001 -1.16001,0.60001 -1.64,1.08 -0.48001,0.48001 -0.86667,1.09334 -1.16,1.84 -0.29334,0.72001 -0.44001,1.58668 -0.44,2.6 l 0,8.32"
           style="fill:#999999" />
        <path
           inkscape:connector-curvature="0"
           id="path3063"
           d="m 291.7225,224.47076 c 0.29333,-0.0533 0.61333,-0.0933 0.96,-0.12 0.37333,-0.0266 0.70666,-0.04 1,-0.04 0.29333,3e-5 0.62666,0.0134 1,0.04 0.37333,0.0267 0.70666,0.0667 1,0.12 l 0,11.28 c 0.47999,-0.79998 1.22666,-1.49332 2.24,-2.08 1.01332,-0.58665 2.23999,-0.87998 3.68,-0.88 1.22665,2e-5 2.35998,0.20002 3.4,0.6 1.03998,0.40002 1.93331,1.02668 2.68,1.88 0.74665,0.82668 1.31998,1.89335 1.72,3.2 0.42665,1.28001 0.63998,2.80001 0.64,4.56 -2e-5,3.52 -1.00002,6.28 -3,8.28 -1.97335,1.97333 -4.82668,2.96 -8.56,2.96 -1.17334,0 -2.38667,-0.12 -3.64,-0.36 -1.22667,-0.21334 -2.26667,-0.46667 -3.12,-0.76 l 0,-28.68 m 3.96,26 c 0.47999,0.16 0.98666,0.28 1.52,0.36 0.55999,0.0533 1.13332,0.08 1.72,0.08 0.98666,0 1.89332,-0.14667 2.72,-0.44 0.85332,-0.32 1.58665,-0.78667 2.2,-1.4 0.61332,-0.64 1.09332,-1.44 1.44,-2.4 0.37332,-0.98666 0.55998,-2.14666 0.56,-3.48 -2e-5,-2.21332 -0.38668,-3.93332 -1.16,-5.16 -0.77335,-1.22665 -2.05335,-1.83999 -3.84,-1.84 -0.61335,10e-6 -1.22668,0.10668 -1.84,0.32 -0.58668,0.18668 -1.13334,0.50668 -1.64,0.96 -0.50667,0.42668 -0.92001,1.01334 -1.24,1.76 -0.29334,0.72001 -0.44001,1.60001 -0.44,2.64 l 0,8.6"
           style="fill:#000000" />
        <path
           inkscape:connector-curvature="0"
           id="path3067"
           d="m 334.41399,243.15076 -4.84,-9.88 c 0.61334,-0.10665 1.30667,-0.15998 2.08,-0.16 0.37333,2e-5 0.73333,0.0134 1.08001,0.04 0.37332,0.0267 0.75999,0.0667 1.15999,0.12 l 4.24,9.92 -5.12,10.6 c -0.34667,0.0533 -0.69333,0.0933 -1.04,0.12 -0.32,0.0267 -0.64,0.04 -0.96,0.04 -0.37333,0 -0.73333,-0.0133 -1.08,-0.04 -0.34666,-0.0267 -0.70666,-0.0667 -1.07999,-0.12 l 5.55999,-10.64 m 4.04,0.04 4.28001,-9.92 c 0.37331,-0.0533 0.74665,-0.0933 1.12,-0.12 0.37331,-0.0266 0.74665,-0.04 1.11999,-0.04 0.71999,2e-5 1.38665,0.0533 2,0.16 l -4.76,9.76 5.56,10.76 c -0.37335,0.0533 -0.73335,0.0933 -1.08,0.12 -0.34668,0.0267 -0.70668,0.04 -1.07999,0.04 -0.72002,0 -1.38669,-0.0533 -2,-0.16 l -5.16001,-10.6"
           style="fill:#000000" />
      </g>
      <path
         inkscape:connector-curvature="0"
         id="path3094"
         d="m 321.90554,223.39843 4.78515,7.34375 -2.71484,0 -3.51563,-4.78515 -3.51562,4.78515 -2.71485,0 4.78516,-7.34375 2.89063,0"
         style="font-size:40px;font-style:normal;font-variant:normal;font-weight:normal;font-stretch:normal;line-height:125%;letter-spacing:0px;word-spacing:0px;fill:#000000;fill-opacity:1;stroke:none;font-family:Aller;-inkscape-font-specification:Aller" />
      <path
         inkscape:connector-curvature="0"
         d="m 320.676,251.11076 c 1.83999,0 3.19999,-0.66667 4.08,-2 0.87998,-1.33333 1.31998,-3.18666 1.32,-5.56 -2e-5,-2.37332 -0.44002,-4.21332 -1.32,-5.52 -0.88001,-1.33332 -2.24001,-1.99999 -4.08,-2 -1.84001,1e-5 -3.20001,0.66668 -4.08,2 -0.85334,1.30668 -1.28001,3.14668 -1.28,5.52 -10e-6,2.37334 0.42666,4.22667 1.28,5.56 0.87999,1.33333 2.23999,2 4.08,2 m 0,3.16 c -1.60001,0 -3.00001,-0.26667 -4.2,-0.8 -1.20001,-0.56 -2.20001,-1.32 -3,-2.28 -0.8,-0.96 -1.4,-2.09333 -1.8,-3.4 -0.37334,-1.30666 -0.56,-2.72 -0.56,-4.24 0,-1.51999 0.18666,-2.93332 0.56,-4.24 0.4,-1.30665 1,-2.43999 1.8,-3.4 0.79999,-0.95998 1.79999,-1.71998 3,-2.28 1.19999,-0.55998 2.59999,-0.83998 4.2,-0.84 1.59999,2e-5 2.99999,0.28002 4.2,0.84 1.19998,0.56002 2.19998,1.32002 3,2.28 0.79998,0.96001 1.38665,2.09335 1.76,3.4 0.39998,1.30668 0.59998,2.72001 0.6,4.24 -2e-5,1.52 -0.20002,2.93334 -0.6,4.24 -0.37335,1.30667 -0.96002,2.44 -1.76,3.4 -0.80002,0.96 -1.80002,1.72 -3,2.28 -1.20001,0.53333 -2.60001,0.8 -4.2,0.8"
         style="font-size:40px;font-style:normal;font-variant:normal;font-weight:normal;font-stretch:normal;line-height:125%;letter-spacing:0px;word-spacing:0px;fill:#000000;fill-opacity:1;stroke:none;font-family:Aller;-inkscape-font-specification:Aller"
         id="path3037" />
    </g>
  </g>
</svg>
